<svg xmlns="http://www.w3.org/2000/svg" viewBox="0 0 30 20"><rect width="30" height="20" fill="#fe0000"/><rect width="15" height="10" fill="#000095"/><circle cx="7.5" cy="5" r="3" fill="#fff"/><circle cx="7.5" cy="5" r="2" fill="#000095"/><g fill="#fff"><polygon points="7.5,2 8.05,4 7.5,5 6.95,4"/><polygon points="9.6,2.6 8.7,4.5 7.5,5 9,4.2"/><polygon points="10.5,5 8.5,5.5 7.5,5 8.5,4.5"/><polygon points="9.6,7.4 8.7,5.5 7.5,5 9,5.8"/><polygon points="7.5,8 6.95,6 7.5,5 8.05,6"/><polygon points="5.4,7.4 6.3,5.5 7.5,5 6,5.8"/><polygon points="4.5,5 6.5,4.5 7.5,5 6.5,5.5"/><polygon points="5.4,2.6 6.3,4.5 7.5,5 6,4.2"/></g></svg>
